<svg xmlns="http://www.w3.org/2000/svg" width="192" height="192" fill="none" viewBox="0 0 192 192">
  <path stroke="#000" stroke-linecap="round" stroke-linejoin="round" stroke-width="12" d="M93.5 34c14 2 19 12.5 10.5 10m44 14.5c-49.96 6.36-126 37-126 37S22 88 26.5 85M149 59c12.889 5.081 10.899 6.47-8 6.5m-59.5 95c-7.763-15.96-12.027-25.77-16.709-46M64 111c.266 1.201.53 2.367.791 3.5m0 0C78.874 107.185 91.28 101.698 102 98.108M93.5 151c.3-.111.598-.22.895-.327M86.5 121c17.252 3.346 23.574 2.87 32-2.5M102 98.108c24.455-8.19 40.146-6.505 47 5.892-8 26.5-20.5 22-28.5 44-7.285-2.428-16.027-.959-26.105 2.673M102 98.108c6 28.392 0 44.392-7.605 52.565"/>
</svg>
