<svg xmlns="http://www.w3.org/2000/svg" width="192" height="192" fill="none" viewBox="0 0 192 192">
  <circle cx="53" cy="120" r="14" stroke="#000" stroke-linejoin="round" stroke-width="12"/>
  <path stroke="#000" stroke-linejoin="round" stroke-width="12" d="M96 22c-40.87 0-74 33.13-74 74 0 26.98 14.44 50.588 36.011 63.518C58.263 154.219 62.64 150 68 150c5.523 0 10 4.477 10 10a9.968 9.968 0 0 1-2.874 7.015A74.012 74.012 0 0 0 96 170a74.006 74.006 0 0 0 20.873-2.985A9.967 9.967 0 0 1 114 160c0-5.523 4.477-10 10-10 5.361 0 9.737 4.219 9.989 9.518C155.561 146.588 170 122.98 170 96c0-40.87-33.131-74-74-74Z"/>
  <circle cx="139" cy="120" r="14" stroke="#000" stroke-linejoin="round" stroke-width="12"/>
  <path stroke="#000" stroke-linejoin="round" stroke-width="10" d="M90.804 126c2.31-4 8.083-4 10.392 0l5.196 9c2.31 4-.577 9-5.196 9H90.804c-4.619 0-7.506-5-5.196-9l5.196-9Z"/>
</svg>
