<svg xmlns="http://www.w3.org/2000/svg" fill="none" viewBox="0 0 192 192">
  <path fill="#000" fill-rule="evenodd" d="M96 16a6 6 0 0 1 6 6v42a6 6 0 0 1-12 0V22a6 6 0 0 1 6-6Zm-24.704 6.517a6 6 0 0 1 2.657 4.983V77H82a6 6 0 0 1 0 12H67.953a6 6 0 0 1-6-6V37.123C41.647 48.89 28 70.858 28 96c0 35.534 27.255 64.701 62 67.739V128a6 6 0 1 1 12 0v35.739c34.745-3.038 62-32.205 62-67.739 0-25.146-13.65-47.115-33.961-58.882L130 83.005A6 6 0 0 1 124 89h-14a6 6 0 1 1 0-12h8.005l.042-49.505a6.002 6.002 0 0 1 8.276-5.547C155.459 33.891 176 62.54 176 96c0 44.183-35.817 80-80 80s-80-35.817-80-80c0-33.46 20.54-62.11 49.677-74.052a6 6 0 0 1 5.619.57ZM62 109a6 6 0 0 1 6-6h14a6 6 0 1 1 0 12H68a6 6 0 0 1-6-6Zm48-6a6 6 0 1 0 0 12h14a6 6 0 1 0 0-12h-14Z" clip-rule="evenodd"/>
</svg>