<svg xmlns="http://www.w3.org/2000/svg" fill="none" viewBox="0 0 192 192">
  <path stroke="#000" stroke-linecap="round" stroke-linejoin="round" stroke-width="10" d="M101 80h19.5c-3.5 3.5-10 8.5-10 18.5m0 0H101m9.5 0v31m0-31h12V114M110 63c1.5 2 1.5 2 2 6.5m41 5h-18V97m18-22.5h17V97m-17-22.5v-8m0 8V97m0 22.5h17V97m-17 22.5h-18V97m18 22.5V97m0 22.5v10M135 97h18m17 0h-17M22 83.5h29.5m0 0v-11m0 11s-3.197 36.409-20.5 41c-3.418.907-9 1-9 1m29.5-42H81m-29.5 0s3.197 36.409 20.5 41c3.418.907 9 1 9 1"/>
</svg>