<svg xmlns="http://www.w3.org/2000/svg" width="192" height="192" fill="none" viewBox="0 0 192 192">
  <path stroke="#000" stroke-linejoin="round" stroke-width="12" d="m96 64 27.713 16v32L96 128l-27.713-16V80L96 64Zm-69.255 5.872A73.835 73.835 0 0 0 22 96a73.832 73.832 0 0 0 4.745 26.128l19.025-10.984V80.856L26.745 69.872Zm12.015 73.032 19.01-10.976L84 147.072v21.96c-18.144-2.959-34.072-12.516-45.24-26.128ZM108 169.032v-21.96l26.229-15.144 19.011 10.976c-11.168 13.612-27.096 23.169-45.24 26.128Zm57.255-46.904C168.322 114.004 170 105.198 170 96a73.829 73.829 0 0 0-4.745-26.128l-19.026 10.984v30.288l19.026 10.984ZM153.24 49.096l-19.011 10.976L108 44.928v-21.96c18.144 2.959 34.072 12.516 45.24 26.128ZM84 22.968v21.96L57.77 60.072 38.76 49.096C49.928 35.484 65.856 25.926 84 22.968Z"/>
</svg>
