<svg xmlns="http://www.w3.org/2000/svg" width="192" height="192" fill="none" viewBox="0 0 192 192">
  <path stroke="#000" stroke-linecap="round" stroke-linejoin="round" stroke-width="12" d="M108.616 86.583C120 84 131.177 85.718 131.475 88.107c1.525 2.893.762 7.62 0 16.002m0 12.953S139.5 125 136 121m-4.525-3.938c-4.475 6.096-20.475 6.096-22.859 3.048-7.15-9.141 1.524-19.811 22.859-16.001m0 12.953v-12.953m-82.293 19.049 8.297-21.335m0 0 13.038-33.527 13.038 33.527m-26.076 0h26.076m8.297 21.335-8.297-21.335"/>
  <path stroke="#000" stroke-linecap="round" stroke-linejoin="round" stroke-width="12" d="m170.277 170.277-26.82-26.82m0 0C154.968 130.983 162 114.312 162 96c0-38.66-31.34-70-70-70S22 57.34 22 96s31.34 70 70 70c20.347 0 38.667-8.682 51.457-22.543Z"/>
</svg>
