<svg xmlns="http://www.w3.org/2000/svg" width="192" height="192" fill="none" viewBox="0 0 192 192">
  <path stroke="#000" stroke-linecap="round" stroke-linejoin="round" stroke-width="12" d="M93 133.808c-4.499-.184-9.422-.62-15-1.295 1.3 4.143 2.231 6.533 6 11.5 4.223-2.703 6.384-4.592 9-10.205Zm0 0c10.885.444 19.293-.589 28.501-3.293m0 0c3.641-1.069 7.407-2.399 11.5-4.002-.609 5.564-1.116 8.426-3 12-4.116-1.939-6.241-3.297-8.5-7.998Zm-95.528-3.002c-2.693-6.189-4.01-14.269-3.972-26.5 3.083-16.91 7.137-24.583 16-37 5.159-22.208 8.357-33.042 13-34 2.248-.839 9.587 1.739 26 8 8.453-2.127 13.4-3.017 24-2 7.877-4.739 12.08-7.218 14-7 9.923-.221 22.974 14.863 41 39 0 0 14-2 14 33 0 3.041-.079 5.867-.238 8.5m-143.79 18c6.711-3.912 10.378-5.599 16.528-6.5-6.191 5.283-8.784 8.634-10.272 16m-6.256-9.5c1.6 3.676 3.683 6.684 6.256 9.5m0 0c2.471 2.705 5.394 5.232 8.772 8a134.81 134.81 0 0 0 5 3.547m0 0c3.341-8.904 6.153-13.297 16-18.045-5.21 8.852-6.697 13.991-7 23.446m-9-5.401c3.123 2.104 6.093 3.886 9 5.401m0 0c12.506 6.518 23.825 8.08 41 9.052 17.569-.46 26.931-1.831 42-8 5.122-2.978 9.62-5.615 13.5-8.378m11.518-11.622c-5.9-6.92-9.767-9.707-17.518-13 6.094 10.141 7.721 15.576 6 24.622m11.518-11.622c-2.916 4.641-6.751 8.226-11.518 11.622m11.518-11.622c2.101-3.344 3.724-7.236 4.874-12m1.87-13.5c-4.803-2.92-7.918-3.408-13.762-3.5 7.377 5.127 10.524 8.549 11.892 17m1.87-13.5c-.313 5.19-.936 9.633-1.87 13.5m-111.392-17c-7.087-8.483-11.835-12.76-1.5-32 11.334-15.895 19.224-22.988 41-24 19.053 1.234 28.566 5.049 42 22.5 11.724 15.78 4.343 22.406-2.5 28.5-6.843 6.094-56.785 16.517-79 5Zm36.5-39c-1.232 10.428-1.306 17.397 1 27 9.338-2.556 15.071-6.361 22.5-14-12.371-9.22-18.196-13.378-23.5-13Z"/>
</svg>
