<svg xmlns="http://www.w3.org/2000/svg" fill="none" viewBox="0 0 192 192">
  <path stroke="#000" stroke-linecap="round" stroke-linejoin="round" stroke-width="12" d="M22 113c30.223-11.33 39-17 74-46m0 0H61m35 0c24 29 44 34 74 46M96 67h24m-94 0h35m-5-21.5C72 59 71 67 61 67M41.5 32C63 32 79 31.004 96 29.94m46-5.44c-17 2.5-31 4.5-46 5.44m0 0V96m69.5-29H120m14-23.5C130 53 127 58 120 67m-67 72h87m-87 0c0-26 0-26 43-26m-43 26c0 27 0 27 43 27m44-27c0-26 0-26-44-26m44 26c0 27 0 27-44 27m0-53v53"/>
</svg>