<svg xmlns="http://www.w3.org/2000/svg" fill="none" viewBox="0 0 192 192">
  <path fill="#000" fill-rule="evenodd" d="M34 16c-9.941 0-18 8.059-18 18v124c0 9.941 8.059 18 18 18h124c9.941 0 18-8.059 18-18V34c0-9.941-8.059-18-18-18H34Zm-6 18a6 6 0 0 1 6-6h124a6 6 0 0 1 6 6v124a6 6 0 0 1-6 6H34a6 6 0 0 1-6-6V34Zm31 19a6 6 0 0 1 6 6v59.515l26.847-26.847.016-.017a6 6 0 0 1 8.475.011l.011.011 36.905 37.095a6.001 6.001 0 0 1-8.508 8.464l-32.662-32.831-32.816 32.816a5.957 5.957 0 0 1-1.808 1.257A5.978 5.978 0 0 1 59 139a5.976 5.976 0 0 1-4.47-1.997A5.971 5.971 0 0 1 53 133V59a6 6 0 0 1 6-6Zm78.243 10.243-25 25a6 6 0 0 1-8.486-8.486l25-25a6 6 0 0 1 8.486 8.486Z" clip-rule="evenodd"/>
</svg>