<svg xmlns="http://www.w3.org/2000/svg" fill="none" viewBox="0 0 192 192">
  <path stroke="#000" stroke-linecap="round" stroke-linejoin="round" stroke-width="14" d="M23 56s23-7 57-7c50 0 89 22 89 22M29 92s18-7 51-7c40 0 74 19 74 19M35 127s20-7 43-7c21 0 40 7 40 7"/>
  <path fill="#000" fill-rule="evenodd" d="M176 127a6 6 0 0 1-6 6h-32a6 6 0 1 1 0-12h32a6 6 0 0 1 6 6Zm-16 16a6 6 0 0 1-6 6h-16a6 6 0 1 1 0-12h16a6 6 0 0 1 6 6Zm2 22a6 6 0 1 0 0-12h-24a6 6 0 1 0 0 12h24Z" clip-rule="evenodd"/>
</svg>