<svg xmlns="http://www.w3.org/2000/svg" width="192" height="192" fill="none" viewBox="0 0 192 192">
  <path stroke="#000" stroke-linecap="round" stroke-linejoin="round" stroke-width="12" d="M129 152c22.644 0 41-18.356 41-41s-18.356-41-41-41h-.038c-2.295 0-4.165 0-6.751.56C104 74.5 73.5 109 68 109l2-14m48.223-50.223A40.817 40.817 0 0 0 99 40c-18.888 0-34.793 12.772-39.55 30.151C38.47 71.951 22 89.552 22 111c0 22.644 18.356 41 41 41 1.835 0 2.423.223 4.5-.195 25.586-5.145 54.586-37.645 54.586-37.645L120.5 129"/>
</svg>
