<svg xmlns="http://www.w3.org/2000/svg" width="192" height="192" fill="none" viewBox="0 0 192 192">
  <path stroke="#000" stroke-linejoin="round" stroke-width="12" d="M35.681 144H123.5c26.234 0 47.5-21.266 47.5-47.5 0-5.03-.782-9.877-2.231-14.427C163.459 78.262 160 72.035 160 65c0-7.149 3-12 9.029-17.256C171 46.5 169.977 44 165.632 44c-5.617-11.825-17.67-20-31.632-20H97.607C106.08 27.705 112 36.161 112 46c0 5.263-1.694 10.13-4.567 14.086L91.697 78.49M35.682 144l56.017-65.51M35.68 144 22 160c11.21 6.371 24.184 10 38 10 31.556 0 58.679-18.982 70.572-46.151A29.902 29.902 0 0 0 139 103c0-16.569-13.431-30-30-30a29.863 29.863 0 0 0-17.302 5.49"/>
</svg>
