<svg xmlns="http://www.w3.org/2000/svg" width="192" height="192" fill="none" viewBox="0 0 192 192">
  <path stroke="#000" stroke-linecap="round" stroke-linejoin="round" stroke-width="12" d="M22 157h126M125.258 50l-11.483-12.126A6 6 0 0 0 109.418 36H28a6 6 0 0 0-6 6v80a6 6 0 0 0 6 6h120c12.15 0 22-9.85 22-22a21.929 21.929 0 0 0-6.444-15.556L157.454 84m-32.196-34H95a6 6 0 0 0-6 6v22a6 6 0 0 0 6 6h62.454m-32.196-34 32.196 34M72 78V56a6 6 0 0 0-6-6H44a6 6 0 0 0-6 6v22a6 6 0 0 0 6 6h22a6 6 0 0 0 6-6Z"/>
</svg>
